# xmcd
#
# Track frame offsets: 
#        150
#        15523
#        27525
#        42673
#        58170
#        69525
#        84910
#        101158
#        118913
#        133288
#        159638
#        172118
#        187755
#        203523
#        215250
#        229243
#        241875
#        253620
#        266213
#        280345
#
# Disc length: 3915 seconds
#
# Revision: 0
# Processed by: cddbd v1.5.2PL0 Copyright (c) Steve Scherf et al.
# Submitted via: ExactAudioCopy v0.95b3
#
DISCID=2b0f4914
DTITLE=Charlie Parker  - Genius of Be Bop 1946-1947 - Disc 2
DYEAR=1900
DGENRE=
TTITLE0=K.C.Blues
TTITLE1=Au Privave
TTITLE2=An Oscar For Treadwell
TTITLE3=Bloomdido
TTITLE4=Leap Frog
TTITLE5=My Melancholy Baby
TTITLE6=Mohawk
TTITLE7=Relaxin' With Lee
TTITLE8=She Rote
TTITLE9=Compulsion
TTITLE10=Summertime
TTITLE11=Just Friends
TTITLE12=Star Eyes
TTITLE13=What Is This Thing Called Love
TTITLE14=I Can't Get Started
TTITLE15=Half Nelson
TTITLE16=Milestones
TTITLE17=Dizzy Atmosphere
TTITLE18=Hot House
TTITLE19=Visa
EXTD=
EXTT0=
EXTT1=
EXTT2=
EXTT3=
EXTT4=
EXTT5=
EXTT6=
EXTT7=
EXTT8=
EXTT9=
EXTT10=
EXTT11=
EXTT12=
EXTT13=
EXTT14=
EXTT15=
EXTT16=
EXTT17=
EXTT18=
EXTT19=
PLAYORDER=
